<svg width="240" height="64" viewBox="0 0 240 64" fill="none" xmlns="http://www.w3.org/2000/svg">
<path d="M69.9296 7.47264H67.8598V5.94916H73.8621V7.45195H71.7923V12.6428H69.8951L69.9296 7.47264ZM76.946 9.96811L77.8084 7.82421L78.6708 9.96811H76.946ZM79.7539 12.6635H81.7271L78.7674 5.94916H76.8977L73.938 12.6635H75.8766L76.401 11.3675H79.2365L79.7539 12.6635ZM86.5703 7.72081C86.7599 7.9141 86.8661 8.17397 86.8661 8.44463C86.8661 8.71529 86.7599 8.97517 86.5703 9.16846C86.3045 9.34673 85.985 9.42715 85.6665 9.39595H84.6178V7.43127H85.6665C85.9829 7.40897 86.2966 7.50204 86.5496 7.69323L86.5703 7.72081ZM86.8669 12.6359H88.8953L87.4534 10.5334C87.8506 10.3472 88.1876 10.0535 88.4261 9.68548C88.6566 9.29366 88.7782 8.84742 88.7782 8.39293C88.7782 7.93844 88.6566 7.4922 88.4261 7.10038C88.1735 6.71768 87.8136 6.41794 87.3913 6.23869C86.8914 6.02969 86.353 5.92868 85.8114 5.94227H82.7481V12.6359H84.6454V10.8574H85.6665L86.8669 12.6359ZM91.6204 12.6359H93.5177V7.44506H95.5874V5.94916H89.5783V7.45195H91.648L91.6204 12.6359ZM97.4157 11.9466C98.0759 12.4735 98.8958 12.7604 99.7407 12.7604C100.586 12.7604 101.405 12.4735 102.066 11.9466C102.354 11.6383 102.576 11.2745 102.718 10.8773C102.861 10.4802 102.92 10.0582 102.894 9.63723V5.94916H101.024V9.60276C101.024 10.6713 100.603 11.209 99.7614 11.209C98.9197 11.209 98.4851 10.6713 98.4851 9.60276V5.94916H96.5878V9.65791C96.561 10.0789 96.6206 10.5009 96.763 10.898C96.9054 11.2952 97.1275 11.659 97.4157 11.9672V11.9466ZM111.752 7.70012C111.942 7.89341 112.048 8.15329 112.048 8.42395C112.048 8.69461 111.942 8.95449 111.752 9.14778C111.497 9.3343 111.184 9.42465 110.869 9.40284H109.813V7.43817H110.862C111.179 7.41459 111.493 7.50778 111.745 7.70012H111.752ZM112.063 12.6428H114.091L112.649 10.5403C113.046 10.3541 113.383 10.0603 113.622 9.69237C113.852 9.30055 113.974 8.85431 113.974 8.39982C113.974 7.94533 113.852 7.49909 113.622 7.10727C113.369 6.72457 113.009 6.42483 112.587 6.24558C112.087 6.03658 111.549 5.93557 111.007 5.94916H107.944V12.6428H109.813V10.8643H110.848L112.063 12.6428ZM117.692 9.94743L118.555 7.80353L119.417 9.94743H117.692ZM120.5 12.6428H122.473L119.507 5.94916H117.637L114.677 12.6428H116.616L117.14 11.3468H119.976L120.5 12.6428ZM127.993 12.6428H130.193L127.31 8.9134L130.069 5.94916H128L125.399 8.70659V5.94916H123.522V12.6428H125.399V10.9677L126.088 10.2163L127.993 12.6428ZM133.05 11.1814V9.95432H136.03V8.54114H133.05V7.41059H136.43V5.94916H131.201V12.6428H136.582V11.1814H133.05ZM142.639 5.94916V9.51314L139.68 5.94916H138.1V12.6428H139.963V9.07884L142.922 12.6428H144.482V5.94916H142.639ZM148.214 11.1331V7.45885H149.414C149.665 7.4458 149.916 7.48231 150.153 7.56629C150.39 7.65028 150.608 7.78009 150.794 7.94829C151.132 8.31589 151.32 8.79685 151.32 9.29599C151.32 9.79513 151.132 10.2761 150.794 10.6437C150.416 10.9808 149.921 11.1565 149.414 11.1331H148.214ZM146.317 12.6428H149.49C150.164 12.6571 150.831 12.518 151.443 12.2361C151.986 11.9803 152.443 11.5734 152.761 11.0642C153.068 10.5255 153.229 9.91607 153.229 9.29599C153.229 8.6759 153.068 8.06651 152.761 7.52778C152.443 7.01856 151.986 6.61164 151.443 6.35588C150.831 6.07398 150.164 5.9349 149.49 5.94916H146.317V12.6428ZM155.479 11.9535C156.138 12.4798 156.957 12.7665 157.8 12.7665C158.644 12.7665 159.463 12.4798 160.122 11.9535C160.413 11.6467 160.637 11.2833 160.781 10.8859C160.924 10.4885 160.984 10.0657 160.957 9.64412V5.94916H159.087V9.60276C159.087 10.6713 158.666 11.209 157.818 11.209C156.969 11.209 156.548 10.6713 156.548 9.60276V5.94916H154.658V9.65791C154.631 10.0789 154.691 10.5009 154.833 10.898C154.975 11.2952 155.197 11.659 155.486 11.9672L155.479 11.9535ZM163.496 12.5808C164.014 12.7134 164.547 12.7805 165.082 12.7807C165.639 12.7946 166.193 12.6961 166.711 12.4912C167.112 12.3289 167.458 12.0564 167.711 11.7053C167.935 11.3867 168.054 11.0056 168.049 10.6161C168.072 10.2142 167.939 9.81888 167.676 9.51314C167.443 9.24398 167.143 9.03976 166.807 8.92029C166.393 8.7735 165.969 8.65603 165.538 8.56872C165.201 8.50692 164.871 8.41462 164.551 8.29297C164.465 8.26463 164.389 8.21037 164.335 8.13758C164.281 8.06479 164.25 7.97702 164.248 7.88625C164.248 7.79784 164.272 7.71114 164.317 7.6349C164.362 7.55865 164.426 7.49555 164.503 7.45195C164.759 7.32311 165.045 7.26595 165.331 7.28651C165.983 7.30127 166.621 7.47902 167.187 7.80353L167.773 6.42482C167.421 6.2226 167.039 6.0761 166.642 5.99052C166.215 5.88831 165.777 5.8374 165.338 5.83886C164.779 5.82402 164.222 5.92251 163.703 6.12839C163.302 6.28779 162.955 6.558 162.702 6.90737C162.482 7.2326 162.366 7.61752 162.371 8.01034C162.347 8.41214 162.475 8.80824 162.73 9.12021C162.968 9.38945 163.269 9.59551 163.606 9.71995C164.019 9.86501 164.44 9.98246 164.868 10.0715C165.21 10.1392 165.544 10.2361 165.869 10.361C165.959 10.3912 166.037 10.4485 166.092 10.5251C166.148 10.6017 166.179 10.6938 166.179 10.7885C166.179 11.1538 165.814 11.333 165.089 11.333C164.301 11.3158 163.533 11.0769 162.875 10.6437L162.254 12.0224C162.634 12.2708 163.054 12.4526 163.496 12.5601V12.5808ZM169.401 12.6221H174.493V11.1193H171.298V5.94916H169.401V12.6221ZM175.721 12.6221H177.618V5.94916H175.721V12.6221ZM183.951 12.6221H186.152L183.268 8.89272L186.028 5.92848H183.958L181.357 8.68591V5.92848H179.481V12.6221H181.357V10.947L182.047 10.1956L183.951 12.6221ZM194.9 12.6221H197.101L194.217 8.89272L196.977 5.92848H194.907L192.306 8.68591V5.92848H190.43V12.6221H192.306V10.947L192.996 10.1956L194.9 12.6221ZM202.138 10.947C201.858 11.1053 201.542 11.1885 201.22 11.1885C200.898 11.1885 200.582 11.1053 200.302 10.947C200.024 10.7823 199.797 10.5436 199.647 10.2576C199.493 9.94581 199.412 9.60257 199.412 9.25463C199.412 8.90669 199.493 8.56344 199.647 8.25161C199.8 7.96765 200.026 7.72968 200.302 7.56225C200.51 7.43952 200.74 7.35992 200.98 7.3282C201.219 7.29648 201.462 7.31331 201.694 7.37767C201.927 7.44203 202.144 7.5526 202.333 7.70276C202.522 7.85293 202.678 8.0396 202.793 8.25161C202.952 8.56218 203.034 8.90592 203.034 9.25463C203.034 9.60333 202.952 9.94707 202.793 10.2576C202.645 10.5452 202.417 10.7844 202.138 10.947ZM199.309 12.3257C199.903 12.6203 200.557 12.7736 201.22 12.7736C201.883 12.7736 202.537 12.6203 203.131 12.3257C203.679 12.0368 204.139 11.6058 204.463 11.078C204.779 10.5348 204.946 9.91755 204.946 9.2891C204.946 8.66064 204.779 8.04341 204.463 7.50021C204.139 6.97237 203.679 6.54137 203.131 6.25248C202.537 5.9579 201.883 5.80462 201.22 5.80462C200.557 5.80462 199.903 5.9579 199.309 6.25248C198.761 6.54137 198.301 6.97237 197.977 7.50021C197.661 8.04341 197.494 8.66064 197.494 9.2891C197.494 9.91755 197.661 10.5348 197.977 11.078C198.301 11.6058 198.761 12.0368 199.309 12.3257ZM206.422 12.6359H211.52V11.1331H208.319V5.94916H206.401L206.422 12.6359ZM212.748 12.6359H217.84V11.1331H214.639V5.94916H212.748V12.6359ZM220.945 11.1745V9.94743H223.925V8.53425H220.945V7.4037H224.339V5.94916H219.082V12.6428H224.463V11.1814L220.945 11.1745ZM227.844 11.1262V7.45195H229.044C229.295 7.4389 229.546 7.47542 229.783 7.5594C230.02 7.64339 230.238 7.7732 230.424 7.9414C230.762 8.309 230.949 8.78996 230.949 9.2891C230.949 9.78824 230.762 10.2692 230.424 10.6368C230.046 10.9739 229.55 11.1496 229.044 11.1262H227.844ZM225.946 12.6359H229.168C229.842 12.6509 230.51 12.5118 231.121 12.2292C231.665 11.9719 232.124 11.5655 232.445 11.0573C232.753 10.5186 232.914 9.90918 232.914 9.2891C232.914 8.66901 232.753 8.05962 232.445 7.52089C232.124 7.01269 231.665 6.60626 231.121 6.34899C230.509 6.06877 229.841 5.93201 229.168 5.94916H225.995L225.946 12.6359ZM237.778 3.93624L236.957 4.66695L236.13 3.93624H234.922L236.171 5.39078H237.737L238.986 3.93624H237.778ZM236.399 11.1331L239.779 7.12796V5.94916H234.005V7.45195H237.302L233.998 11.464V12.6497H240V11.1469L236.399 11.1331ZM69.9296 24.1551H71.8268V18.9573H73.8966V17.4545H67.8943V18.9573H69.9641L69.9296 24.1551ZM76.946 21.4528L77.8084 19.3089L78.6708 21.4528H76.946ZM79.7539 24.1551H81.7271L78.7674 17.4545H76.8977L73.938 24.1551H75.8766L76.401 22.8522H79.2365L79.7539 24.1551ZM86.5703 19.2055C86.6709 19.2962 86.7498 19.4084 86.8011 19.5337C86.8525 19.6589 86.8749 19.7942 86.8669 19.9293C86.8765 20.0646 86.8547 20.2004 86.8033 20.3259C86.7518 20.4514 86.6721 20.5634 86.5703 20.6532C86.3164 20.8419 86.0027 20.9325 85.6872 20.9082H84.6385V18.9436H85.6665C85.9829 18.9212 86.2966 19.0143 86.5496 19.2055H86.5703ZM86.8669 24.1551H88.8953L87.4534 22.0457C87.8536 21.8641 88.1918 21.5693 88.4261 21.1977C88.6099 20.9083 88.7286 20.5824 88.7742 20.2426C88.8198 19.9029 88.7911 19.5573 88.6901 19.2296C88.5891 18.902 88.4182 18.6002 88.1892 18.3449C87.9602 18.0896 87.6786 17.887 87.3637 17.751C86.8638 17.542 86.3254 17.441 85.7838 17.4545H82.7206V24.1551H84.6178V22.3697H85.6665L86.8669 24.1551ZM91.6204 24.1551H93.5177V18.9573H95.5874V17.4545H89.5783V18.9573H91.648L91.6204 24.1551ZM97.4157 23.4657C98.0759 23.9926 98.8958 24.2796 99.7407 24.2796C100.586 24.2796 101.405 23.9926 102.066 23.4657C102.354 23.1575 102.576 22.7936 102.718 22.3965C102.861 21.9994 102.92 21.5774 102.894 21.1564V17.4476H101.024V21.115C101.024 22.1904 100.603 22.7212 99.7614 22.7212C98.9197 22.7212 98.4851 22.1904 98.4851 21.115V17.4614H96.5878V21.1702C96.561 21.5912 96.6206 22.0132 96.763 22.4103C96.9054 22.8074 97.1275 23.1713 97.4157 23.4795V23.4657ZM112.842 17.4614L111.007 21.8044L109.186 17.4407H107.116L109.979 24.1413H111.883L114.76 17.4407L112.842 17.4614ZM119.81 22.4869C119.531 22.6454 119.214 22.7263 118.893 22.7212C118.569 22.7265 118.25 22.6456 117.968 22.4869C117.694 22.319 117.47 22.081 117.32 21.7975C117.156 21.4899 117.073 21.1461 117.078 20.7979C117.072 20.4474 117.155 20.1011 117.32 19.7915C117.468 19.5059 117.692 19.2672 117.968 19.1021C118.25 18.9412 118.569 18.8579 118.893 18.8608C119.215 18.8582 119.531 18.9415 119.81 19.1021C120.088 19.2652 120.313 19.5044 120.459 19.7915C120.623 20.1011 120.706 20.4474 120.7 20.7979C120.705 21.1461 120.622 21.4899 120.459 21.7975C120.31 22.0826 120.086 22.3212 119.81 22.4869ZM116.982 23.8656C117.576 24.1601 118.23 24.3134 118.893 24.3134C119.556 24.3134 120.21 24.1601 120.804 23.8656C121.352 23.5767 121.812 23.1457 122.135 22.6178C122.378 22.2169 122.536 21.7708 122.6 21.3067C122.664 20.8427 122.633 20.3704 122.509 19.9188C122.384 19.4672 122.168 19.0458 121.875 18.6801C121.582 18.3145 121.218 18.0124 120.804 17.7923C120.211 17.493 119.557 17.3371 118.893 17.3371C118.229 17.3371 117.574 17.493 116.982 17.7923C116.43 18.0732 115.969 18.5031 115.65 19.0332C115.408 19.4341 115.249 19.8802 115.185 20.3442C115.121 20.8083 115.152 21.2805 115.277 21.7322C115.401 22.1838 115.617 22.6052 115.91 22.9709C116.203 23.3365 116.568 23.6386 116.982 23.8587V23.8656ZM125.543 23.8587C126.125 24.1656 126.776 24.3198 127.434 24.3068C128.002 24.3147 128.566 24.2043 129.09 23.9828C129.57 23.7754 129.991 23.4535 130.318 23.0452L129.131 21.9285C128.946 22.1726 128.708 22.3706 128.434 22.507C128.159 22.6434 127.857 22.7143 127.551 22.7143C127.212 22.722 126.877 22.6412 126.578 22.48C126.286 22.3229 126.046 22.0831 125.888 21.7906C125.734 21.48 125.654 21.1379 125.654 20.791C125.654 20.4442 125.734 20.1021 125.888 19.7915C126.044 19.4974 126.284 19.2571 126.578 19.1021C126.876 18.9385 127.211 18.8553 127.551 18.8608C127.857 18.8608 128.159 18.9318 128.434 19.0681C128.708 19.2045 128.946 19.4025 129.131 19.6467L130.338 18.5575C130.014 18.1682 129.599 17.8631 129.131 17.6682C128.608 17.4467 128.044 17.3363 127.475 17.3442C126.818 17.3347 126.168 17.4887 125.585 17.7923C125.039 18.0756 124.582 18.5053 124.267 19.0332C123.944 19.5771 123.779 20.2001 123.791 20.8324C123.782 21.4644 123.946 22.0868 124.267 22.6316C124.583 23.1574 125.039 23.5848 125.585 23.8656L125.543 23.8587ZM133.781 21.4804L134.643 19.3365L135.506 21.4804H133.781ZM136.589 24.1827H138.562L135.589 17.4821H133.719L130.759 24.1827H132.698L133.222 22.8798H136.03L136.589 24.1827ZM140.666 24.1827H142.564V18.9849H144.633V17.4821H138.631V18.9849H140.701L140.666 24.1827ZM145.799 24.1827H147.697V17.4821H145.799V24.1827ZM153.809 22.4937C153.527 22.6476 153.21 22.7282 152.888 22.7282C152.566 22.7282 152.25 22.6476 151.967 22.4937C151.692 22.3281 151.467 22.0895 151.319 21.8044C151.155 21.4968 151.072 21.153 151.077 20.8048C151.071 20.4543 151.154 20.108 151.319 19.7984C151.464 19.5113 151.689 19.272 151.967 19.109C152.248 18.9507 152.565 18.8676 152.888 18.8676C153.211 18.8676 153.528 18.9507 153.809 19.109C154.087 19.272 154.312 19.5113 154.458 19.7984C154.622 20.108 154.705 20.4543 154.699 20.8048C154.704 21.153 154.621 21.4968 154.458 21.8044C154.309 22.0895 154.085 22.3281 153.809 22.4937ZM150.974 23.8725C151.569 24.1671 152.224 24.3204 152.888 24.3204C153.552 24.3204 154.208 24.1671 154.803 23.8725C155.35 23.5848 155.808 23.1534 156.127 22.6247C156.37 22.2242 156.529 21.7785 156.593 21.3147C156.658 20.851 156.627 20.3789 156.503 19.9274C156.379 19.4758 156.165 19.0542 155.872 18.6883C155.58 18.3224 155.216 18.0199 154.803 17.7992C154.209 17.4999 153.553 17.3439 152.888 17.3439C152.223 17.3439 151.567 17.4999 150.974 17.7992C150.424 18.0819 149.963 18.5114 149.642 19.0401C149.4 19.441 149.241 19.8871 149.177 20.3511C149.113 20.8152 149.144 21.2874 149.269 21.739C149.393 22.1906 149.609 22.6121 149.902 22.9778C150.195 23.3434 150.56 23.6455 150.974 23.8656V23.8725ZM162.612 17.4821V21.053L159.653 17.4821H158.107V24.1827H159.97V20.6118L162.93 24.1827H164.489V17.4821H162.612ZM168.504 21.4804L169.367 19.3365L170.229 21.4804H168.504ZM171.312 24.1827H173.285L170.312 17.4821H168.456L165.496 24.1827H167.435L167.959 22.8798H170.795L171.312 24.1827ZM174.3 24.1827H179.391V22.6799H176.19V17.4821H174.3V24.1827ZM185.338 23.8656C185.92 24.1725 186.571 24.3267 187.229 24.3136C187.797 24.3216 188.361 24.2112 188.884 23.9896C189.363 23.7804 189.784 23.4588 190.112 23.0521L188.905 21.956C188.72 22.2002 188.482 22.3982 188.208 22.5346C187.933 22.6709 187.631 22.7419 187.325 22.7419C186.986 22.7495 186.651 22.6688 186.352 22.5075C186.06 22.3505 185.82 22.1107 185.662 21.8182C185.508 21.5075 185.428 21.1654 185.428 20.8186C185.428 20.4718 185.508 20.1297 185.662 19.819C185.818 19.525 186.058 19.2847 186.352 19.1297C186.65 18.966 186.985 18.8829 187.325 18.8884C187.631 18.8884 187.933 18.9594 188.208 19.0957C188.482 19.2321 188.72 19.4301 188.905 19.6743L190.112 18.5851C189.787 18.1745 189.365 17.8502 188.884 17.6407C188.361 17.4191 187.797 17.3087 187.229 17.3167C186.571 17.3072 185.921 17.4611 185.338 17.7647C184.792 18.048 184.336 18.4777 184.02 19.0056C183.697 19.5497 183.53 20.1722 183.538 20.8048C183.53 21.4375 183.697 22.06 184.02 22.604C184.336 23.1299 184.793 23.5572 185.338 23.838V23.8656ZM195.59 22.4593C195.311 22.6178 194.994 22.6987 194.673 22.6937C194.349 22.699 194.03 22.6181 193.748 22.4593C193.474 22.2914 193.25 22.0534 193.1 21.7699C192.936 21.4624 192.853 21.1185 192.858 20.7703C192.852 20.4198 192.935 20.0735 193.1 19.7639C193.248 19.4784 193.472 19.2396 193.748 19.0745C194.03 18.9136 194.349 18.8304 194.673 18.8333C194.995 18.8306 195.311 18.9139 195.59 19.0745C195.868 19.2392 196.095 19.4779 196.246 19.7639C196.408 20.0741 196.489 20.4204 196.48 20.7703C196.487 21.1179 196.407 21.4617 196.246 21.7699C196.093 22.0539 195.866 22.2918 195.59 22.4593ZM192.762 23.838C193.356 24.1326 194.01 24.2858 194.673 24.2858C195.336 24.2858 195.99 24.1326 196.584 23.838C197.132 23.5491 197.592 23.1181 197.915 22.5903C198.158 22.1893 198.316 21.7432 198.38 21.2792C198.444 20.8151 198.413 20.3429 198.289 19.8913C198.164 19.4397 197.948 19.0182 197.655 18.6526C197.362 18.2869 196.998 17.9848 196.584 17.7647C195.991 17.4655 195.337 17.3095 194.673 17.3095C194.009 17.3095 193.354 17.4655 192.762 17.7647C192.348 17.9848 191.983 18.2869 191.69 18.6526C191.397 19.0182 191.182 19.4397 191.057 19.8913C190.932 20.3429 190.901 20.8151 190.965 21.2792C191.029 21.7432 191.188 22.1893 191.43 22.5903C191.754 23.1181 192.214 23.5491 192.762 23.838ZM199.875 24.1551H204.966V22.6523H201.772V17.4545H199.875V24.1551ZM206.194 24.1551H211.293V22.6523H208.092V17.4545H206.194V24.1551ZM214.397 22.6868V21.4666H217.378V20.0465H214.397V18.916H217.778V17.4545H212.521V24.1551H217.902V22.6868H214.397ZM223.918 22.4937C223.597 22.6438 223.245 22.7192 222.89 22.7143C222.546 22.7188 222.207 22.6358 221.904 22.4731C221.613 22.3126 221.374 22.0737 221.214 21.7837C221.051 21.4809 220.968 21.1417 220.972 20.7979C220.957 20.5423 220.996 20.2864 221.087 20.0471C221.179 19.8078 221.319 19.5904 221.5 19.4094C221.682 19.2284 221.899 19.0877 222.139 18.9967C222.378 18.9057 222.634 18.8665 222.89 18.8815C223.199 18.8802 223.505 18.9461 223.786 19.0747C224.067 19.2032 224.317 19.3914 224.518 19.626L225.726 18.5368C225.388 18.1384 224.96 17.8264 224.477 17.6269C223.943 17.4103 223.37 17.3025 222.794 17.3098C222.125 17.2994 221.464 17.4533 220.869 17.7579C220.317 18.0387 219.856 18.4687 219.537 18.9987C219.214 19.5426 219.05 20.1656 219.061 20.7979C219.052 21.4299 219.216 22.0524 219.537 22.5971C219.857 23.1423 220.326 23.5848 220.889 23.8725C221.475 24.1761 222.127 24.33 222.787 24.3205C223.291 24.3182 223.793 24.2439 224.277 24.0999C224.751 23.9649 225.199 23.7505 225.602 23.4657V20.7083H223.925L223.918 22.4937ZM229.155 22.6868V21.4666H232.135V20.0465H229.168V18.916H232.549V17.4545H227.292V24.1551H232.673V22.6868H229.155ZM60.6088 15.1038C60.6088 12.1163 59.7221 9.19583 58.0609 6.71187C56.3996 4.22791 54.0384 2.29203 51.2759 1.14906C48.5134 0.00608806 45.4737 -0.292616 42.5413 0.290727C39.6089 0.87407 36.9155 2.31325 34.8018 4.42625C32.6881 6.53925 31.249 9.23114 30.6665 12.1614C30.084 15.0918 30.3843 18.1288 31.5295 20.8886C32.6746 23.6483 34.6132 26.0068 37.0999 27.6656C39.5866 29.3244 42.5098 30.209 45.4998 30.2077C49.5076 30.2058 53.3506 28.6137 56.1839 25.7814C59.0172 22.9491 60.6088 19.1084 60.6088 15.1038ZM88.2054 48.8824C88.2054 45.8948 87.3187 42.9744 85.6574 40.4904C83.9961 38.0064 81.6349 36.0705 78.8724 34.9276C76.1099 33.7846 73.0703 33.4859 70.1378 34.0692C67.2054 34.6526 64.512 36.0918 62.3983 38.2048C60.2846 40.3178 58.8455 43.0097 58.263 45.94C57.6805 48.8703 57.9808 51.9074 59.126 54.6671C60.2711 57.4269 62.2097 59.7853 64.6964 61.4441C67.1831 63.1029 70.1063 63.9875 73.0963 63.9862C77.1041 63.9844 80.9471 62.3922 83.7804 59.5599C86.6137 56.7276 88.2054 52.8869 88.2054 48.8824ZM46.8106 48.9306L57.518 38.2318C55.4076 36.1168 52.7169 34.6745 49.7862 34.0872C46.8555 33.4999 43.8163 33.794 41.0529 34.9322C38.2894 36.0705 35.9257 38.0018 34.2606 40.4821C32.5954 42.9624 31.7036 45.8803 31.6978 48.8669C31.692 51.8536 32.5726 54.7749 34.2281 57.2616C35.8836 59.7483 38.2398 61.6888 40.9988 62.8377C43.7579 63.9866 46.7959 64.2924 49.7288 63.7165C52.6618 63.1405 55.358 61.7086 57.4767 59.6019L46.8106 48.9306ZM0 1.54416L15.868 29.0013L31.736 1.54416H0Z" fill="white"/>
</svg>
